# Blender v2.90.1 OBJ File: 'boxBuilding.blend'
# www.blender.org
mtllib boxBuilding.mtl
#o Cube.002
v -151.000000 -1.000000 301.000000
v -151.000000 89.000000 301.000000
v -151.000000 -1.000000 -301.000000
v -151.000000 89.000000 -301.000000
v -149.000000 -1.000000 301.000000
v -149.000000 89.000000 301.000000
v -149.000000 -1.000000 -301.000000
v -149.000000 89.000000 -301.000000
vt 0.375000 0.000000
vt 0.625000 0.000000
vt 0.625000 0.250000
vt 0.375000 0.250000
vt 0.625000 0.500000
vt 0.375000 0.500000
vt 0.625000 0.750000
vt 0.375000 0.750000
vt 0.625000 1.000000
vt 0.375000 1.000000
vt 0.125000 0.500000
vt 0.125000 0.750000
vt 0.875000 0.500000
vt 0.875000 0.750000
vn -1.0000 0.0000 0.0000
vn 0.0000 0.0000 -1.0000
vn 1.0000 0.0000 0.0000
vn 0.0000 0.0000 1.0000
vn 0.0000 -1.0000 0.0000
vn 0.0000 1.0000 0.0000
usemtl Material
s off
f 1/1/1 2/2/1 4/3/1 3/4/1
f 3/4/2 4/3/2 8/5/2 7/6/2
f 7/6/3 8/5/3 6/7/3 5/8/3
f 5/8/4 6/7/4 2/9/4 1/10/4
f 3/11/5 7/6/5 5/8/5 1/12/5
f 8/5/6 4/13/6 2/14/6 6/7/6
#o Cube.003_Cube.006
v -149.000000 -1.000000 301.000000
v -149.000000 89.000000 301.000000
v -149.000000 -1.000000 299.000000
v -149.000000 89.000000 299.000000
v 149.000000 -1.000000 301.000000
v 149.000000 89.000000 301.000000
v 149.000000 -1.000000 299.000000
v 149.000000 89.000000 299.000000
vt 0.375000 0.250000
vt 0.625000 0.250000
vt 0.625000 0.500000
vt 0.375000 0.500000
vt 0.375000 0.750000
vt 0.625000 0.750000
vt 0.625000 1.000000
vt 0.375000 1.000000
vt 0.125000 0.500000
vt 0.125000 0.750000
vt 0.875000 0.500000
vt 0.875000 0.750000
vn 0.0000 0.0000 -1.0000
vn 0.0000 0.0000 1.0000
vn 0.0000 -1.0000 0.0000
vn 0.0000 1.0000 0.0000
usemtl Material
s off
f 11/15/7 12/16/7 16/17/7 15/18/7
f 13/19/8 14/20/8 10/21/8 9/22/8
f 11/23/9 15/18/9 13/19/9 9/24/9
f 16/17/10 12/25/10 10/26/10 14/20/10
#o Cube.005_Cube.008
v -149.000000 87.000000 299.000000
v -149.000000 89.000000 299.000000
v -149.000000 87.000000 -299.000000
v -149.000000 89.000000 -299.000000
v 149.000000 87.000000 299.000000
v 149.000000 89.000000 299.000000
v 149.000000 87.000000 -299.000000
v 149.000000 89.000000 -299.000000
vt 0.125000 0.500000
vt 0.375000 0.500000
vt 0.375000 0.750000
vt 0.125000 0.750000
vt 0.625000 0.500000
vt 0.875000 0.500000
vt 0.875000 0.750000
vt 0.625000 0.750000
vn 0.0000 -1.0000 0.0000
vn 0.0000 1.0000 0.0000
usemtl Material
s off
f 19/27/11 23/28/11 21/29/11 17/30/11
f 24/31/12 20/32/12 18/33/12 22/34/12
l 17 18
l 20 19
l 24 23
l 22 21
#o Cube.006_Cube.009
v 149.000000 -1.000000 301.000000
v 149.000000 89.000000 301.000000
v 149.000000 -1.000000 -301.000000
v 149.000000 89.000000 -301.000000
v 151.000000 -1.000000 301.000000
v 151.000000 89.000000 301.000000
v 151.000000 -1.000000 -301.000000
v 151.000000 89.000000 -301.000000
vt 0.375000 0.000000
vt 0.625000 0.000000
vt 0.625000 0.250000
vt 0.375000 0.250000
vt 0.625000 0.500000
vt 0.375000 0.500000
vt 0.625000 0.750000
vt 0.375000 0.750000
vt 0.625000 1.000000
vt 0.375000 1.000000
vt 0.125000 0.500000
vt 0.125000 0.750000
vt 0.875000 0.500000
vt 0.875000 0.750000
vn -1.0000 0.0000 0.0000
vn 0.0000 0.0000 -1.0000
vn 1.0000 0.0000 0.0000
vn 0.0000 0.0000 1.0000
vn 0.0000 -1.0000 0.0000
vn 0.0000 1.0000 0.0000
usemtl Material
s off
f 25/35/13 26/36/13 28/37/13 27/38/13
f 27/38/14 28/37/14 32/39/14 31/40/14
f 31/40/15 32/39/15 30/41/15 29/42/15
f 29/42/16 30/41/16 26/43/16 25/44/16
f 27/45/17 31/40/17 29/42/17 25/46/17
f 32/39/18 28/47/18 26/48/18 30/41/18
#o Cube.007_Cube.011
v -149.000000 -3.000000 299.000000
v -149.000000 -1.000000 299.000000
v -149.000000 -3.000000 -299.000000
v -149.000000 -1.000000 -299.000000
v 149.000000 -3.000000 299.000000
v 149.000000 -1.000000 299.000000
v 149.000000 -3.000000 -299.000000
v 149.000000 -1.000000 -299.000000
vt 0.625000 0.500000
vt 0.875000 0.500000
vt 0.875000 0.750000
vt 0.625000 0.750000
vn 0.0000 1.0000 0.0000
usemtl Material
s off
f 40/49/19 36/50/19 34/51/19 38/52/19
l 35 33
l 33 34
l 36 35
l 39 35
l 40 39
l 37 39
l 38 37
l 33 37
#o Cube.004_Cube.001
v -149.000000 -1.000000 -299.000000
v -149.000000 89.000000 -299.000000
v -149.000000 -1.000000 -301.000000
v -149.000000 89.000000 -301.000000
v 149.000000 -1.000000 -299.000000
v 149.000000 89.000000 -299.000000
v 149.000000 -1.000000 -301.000000
v 149.000000 89.000000 -301.000000
v 37.250000 -1.000000 -301.000000
v -37.250000 89.000000 -301.000000
v -37.250000 -1.000000 -299.000000
v 37.250000 89.000000 -299.000000
v -37.250000 -1.000000 -301.000000
v 37.250000 89.000000 -301.000000
v 37.250000 -1.000000 -299.000000
v -37.250000 89.000000 -299.000000
v -37.250000 21.500000 -301.000000
v 37.250000 21.500000 -301.000000
v 37.250000 21.500000 -299.000000
v -37.250000 21.500000 -299.000000
v 0.609528 -1.000000 -301.000000
v 0.609528 -1.000000 -299.000000
v 0.609528 21.500000 -299.000000
v 0.609528 21.500000 -301.000000
v -0.615801 -1.000000 -301.000000
v -0.615801 -1.000000 -299.000000
v -0.615801 21.500000 -299.000000
v -0.615801 21.500000 -301.000000
vt 0.781250 0.500000
vt 0.875000 0.500000
vt 0.875000 0.750000
vt 0.781250 0.750000
vt 0.437500 0.343750
vt 0.437500 0.906250
vt 0.375000 0.906250
vt 0.375000 0.343750
vt 0.718750 0.500000
vt 0.625000 0.500000
vt 0.375000 0.500000
vt 0.281250 0.500000
vt 0.437500 0.406250
vt 0.000000 0.000000
vt 0.437500 0.375000
vt 0.718750 0.750000
vt 0.625000 0.750000
vt 0.218750 0.750000
vt 0.125000 0.750000
vt 0.125000 0.500000
vt 0.218750 0.500000
vt 0.375000 0.843750
vt 0.437500 0.843750
vt 0.375000 0.406250
vt 0.000000 0.000000
vt 0.000000 0.000000
vt 0.000000 0.000000
vt 0.250000 0.500000
vt 0.250000 0.750000
vt 0.000000 0.000000
vt 0.000000 0.000000
vt 0.000000 0.000000
vt 0.000000 0.000000
vt 0.000000 0.000000
vt 0.000000 0.000000
vt 0.000000 0.000000
vt 0.000000 0.000000
vt 0.375000 0.750000
vt 0.281250 0.750000
vn 0.0000 1.0000 0.0000
vn 1.0000 0.0000 0.0000
vn 0.0000 0.0000 -1.0000
vn 0.0000 -1.0000 0.0000
vn -1.0000 0.0000 0.0000
vn 0.0000 0.0000 1.0000
usemtl Material
s off
f 50/53/20 44/54/20 42/55/20 56/56/20
f 57/57/21 60/58/21 51/59/21 53/60/21
f 54/61/22 48/62/22 47/63/22 49/64/22
f 50/53/22 54/61/22 58/65/22 64/66/22 68/67/22 57/57/22
f 52/68/20 46/69/20 48/62/20 54/61/20
f 51/70/23 41/71/23 43/72/23 53/73/23
f 55/74/24 59/75/24 58/65/24 49/76/24
f 62/77/21 61/78/21 64/66/21 63/79/21
f 65/80/24 66/81/24 67/82/24 68/67/24
f 57/57/23 68/67/23 67/82/23 60/58/23
f 58/65/23 59/75/23 63/79/23 64/66/23
f 63/79/23 67/82/23 68/83/23 64/66/23
f 65/84/20 53/85/20 51/86/20 66/87/20
f 65/84/23 61/78/23 62/77/23 66/87/23
f 61/78/23 49/88/23 55/89/23 62/77/23
f 45/90/23 55/91/23 49/64/23 47/63/23
f 52/68/20 54/61/20 50/53/20 56/56/20
f 44/54/22 50/53/22 53/73/22 43/72/22
f 60/58/25 67/82/25 63/79/25 59/75/25 52/68/25 56/56/25
f 60/58/25 56/56/25 42/55/25 41/71/25 51/59/25
f 52/68/25 59/75/25 55/91/25 45/90/25 46/69/25
f 68/83/22 64/66/22 61/78/22 65/84/22
f 63/79/25 67/82/25 66/87/25 62/77/25
