# Blender v2.90.1 OBJ File: ''
# www.blender.org
mtllib NUT.mtl
#o Cube
v 5.929852 0.000000 -1.000000
v -6.094796 0.000000 1.000000
v 5.929852 0.000000 1.000000
v -6.094796 0.000000 -1.000000
v 2.999822 -4.639057 1.000000
v 2.999822 4.945879 -1.000000
v 2.999822 -4.639057 -1.000000
v 2.999822 4.945879 1.000000
v -3.000000 -4.639057 -1.000000
v -3.000000 4.945879 1.000000
v -3.000000 -4.639057 1.000000
v -3.000000 4.945879 -1.000000
v -0.453582 -2.845106 1.000000
v -1.417988 -2.474364 -1.000000
v -0.998163 -2.701989 1.000000
v -1.875535 -2.149841 -1.000000
v 0.107898 -2.879082 1.000000
v -0.906480 -2.703242 -1.000000
v -1.504750 -2.454943 1.000000
v -2.261370 -1.741850 -1.000000
v -1.953601 -2.113263 1.000000
v -2.560393 -1.265876 -1.000000
v 0.664647 -2.802941 1.000000
v -0.360723 -2.828007 -1.000000
v -2.327140 -1.690000 1.000000
v -2.760786 -0.740129 -1.000000
v 1.195347 -2.619936 1.000000
v 0.198391 -2.844190 -1.000000
v 1.679803 -2.337368 1.000000
v 0.749572 -2.751439 -1.000000
v -2.610682 -1.201471 1.000000
v -2.854517 -0.184866 -1.000000
v 2.099683 -1.966272 1.000000
v 1.271927 -2.553493 -1.000000
v -2.793044 -0.666625 1.000000
v -2.837697 0.378401 -1.000000
v 2.439184 -1.520960 1.000000
v 1.745712 -2.258009 -1.000000
v -2.867019 -0.106285 1.000000
v -2.710774 0.927757 -1.000000
v 2.685584 -1.018464 1.000000
v 2.153046 -1.876265 -1.000000
v -2.829685 0.457690 1.000000
v -2.478547 1.441763 -1.000000
v 2.829685 -0.477898 1.000000
v 2.478546 -1.422731 -1.000000
v -2.682527 1.003294 1.000000
v -2.149989 1.900334 -1.000000
v -2.431375 1.509274 1.000000
v -1.737903 2.285564 -1.000000
v 2.866122 0.080253 1.000000
v 2.709877 -0.914549 -1.000000
v -2.086151 1.955988 1.000000
v -1.258394 2.582448 -1.000000
v 2.793548 0.634869 1.000000
v 2.838200 -0.370918 -1.000000
v 2.614671 1.164963 1.000000
v 2.858505 0.187597 -1.000000
v -1.660447 2.326187 1.000000
v -0.730216 2.779497 -1.000000
v -1.170954 2.605697 1.000000
v -0.173997 2.869191 -1.000000
v 2.336166 1.650435 1.000000
v 2.769812 0.739803 -1.000000
v -0.636770 2.783951 1.000000
v 0.388600 2.848256 -1.000000
v 1.968451 2.072802 1.000000
v 2.575243 1.264653 -1.000000
v 1.525324 2.415882 1.000000
v 2.281945 1.742028 -1.000000
v -0.078622 2.854368 1.000000
v 0.935758 2.717768 -1.000000
v 1.023490 2.666413 1.000000
v 1.900862 2.153502 -1.000000
v 0.481962 2.814569 1.000000
v 1.446368 2.483067 -1.000000
v -0.260178 -2.837970 0.823455
v -1.565472 -2.352835 -0.823455
v -0.807162 -2.732815 0.823455
v 0.296246 -2.834357 0.823455
v -1.074898 -2.612927 -0.823455
v -1.996334 -2.001688 -0.823455
v -1.323575 -2.522623 0.823455
v -1.789351 -2.215230 0.823455
v -2.350706 -1.572737 -0.823455
v -0.543575 -2.772279 -0.823455
v 0.840739 -2.722443 0.823455
v -2.614669 -1.082327 -0.823455
v -2.186291 -1.822307 0.823455
v 1.352516 -2.506825 0.823455
v 0.008092 -2.825094 -0.823455
v 1.812152 -2.196013 0.823455
v 0.559040 -2.769641 -0.823455
v -2.498813 -1.358943 0.823455
v -2.777750 -0.549291 -0.823455
v 2.202292 -1.802064 0.823455
v 1.088340 -2.608273 -0.823456
v -2.714596 -0.843056 0.823455
v 1.575960 -2.347303 -0.823455
v -2.779161 0.561317 -0.823455
v 2.508272 -1.340103 0.823455
v 2.003490 -1.996747 -0.823455
v 2.718632 -0.827742 0.823455
v -2.825958 0.264775 0.823455
v -2.617054 1.095688 -0.823456
v 2.354798 -1.569937 -0.823456
v -2.353270 1.588023 -0.823456
v -2.717104 0.813517 0.823455
v 2.825510 -0.284431 0.823455
v -2.502840 1.330139 0.823455
v 2.616605 -1.083032 -0.823456
v -1.998058 2.019095 -0.823456
v -1.565290 2.372094 -0.823455
v -2.191622 1.794543 0.823455
v 2.778964 -0.554435 -0.823455
v 2.716842 0.812387 0.823455
v -1.071896 2.633316 -0.823455
v -1.795708 2.188745 0.823455
v 2.505320 1.324370 0.823455
v -1.330642 2.497580 0.823455
v -0.537166 2.792707 -0.823455
v 2.784257 0.547029 -0.823455
v 2.198230 1.785758 0.823455
v -0.814605 2.709292 0.823455
v 2.626607 1.078088 -0.823455
v 1.807063 2.178932 0.823455
v 0.018043 2.844256 -0.823455
v 2.368418 1.568750 -0.823455
v 1.346525 2.488769 0.823455
v 0.572152 2.786203 -0.823455
v -0.267669 2.815969 0.823455
v 2.019285 2.000144 -0.823455
v 0.289006 2.813808 0.823455
v 1.103727 2.621078 -0.823455
v 0.834015 2.703222 0.823455
v 1.592326 2.355554 -0.823455
v -2.833375 0.005775 -0.823455
v -2.825106 -0.294693 0.823455
v 2.824910 0.269262 0.823455
v 2.835620 -0.004132 -0.823455
vt 0.312496 0.500000
vt 0.312496 0.750000
vt 0.187500 0.750000
vt 0.187500 0.500000
vt 0.500000 0.500000
vt 0.687504 0.500000
vt 0.625000 0.812504
vt 0.500000 0.750000
vt 0.500000 0.000000
vt 0.500000 0.250000
vt 0.812500 0.500000
vt 0.812500 0.750000
vt 0.687504 0.750000
vt 0.718750 0.621983
vt 0.718750 0.871995
vt 0.734375 0.871636
vt 0.734375 0.621624
vt 0.625000 0.623866
vt 0.625000 0.873878
vt 0.640625 0.873600
vt 0.640625 0.623587
vt 0.218750 0.620547
vt 0.218750 0.870559
vt 0.234375 0.870918
vt 0.234375 0.620906
vt 0.781250 0.620547
vt 0.781250 0.870559
vt 0.796875 0.870214
vt 0.796875 0.620202
vt 0.750000 0.621265
vt 0.750000 0.871277
vt 0.765625 0.870918
vt 0.765625 0.620906
vt 0.843750 0.619221
vt 0.843750 0.869233
vt 0.859375 0.868955
vt 0.859375 0.618943
vt 0.000000 0.867598
vt 0.015625 0.867634
vt 0.015625 0.617622
vt 0.000000 0.617586
vt 0.468750 0.624873
vt 0.468750 0.874885
vt 0.484375 0.874920
vt 0.484375 0.624908
vt 0.500000 0.624944
vt 0.500000 0.874956
vt 0.515625 0.874920
vt 0.515625 0.624908
vt 0.031250 0.617657
vt 0.031250 0.867669
vt 0.046875 0.867774
vt 0.046875 0.617762
vt 0.875000 0.618664
vt 0.875000 0.868676
vt 0.890625 0.868447
vt 0.890625 0.618435
vt 0.406250 0.624324
vt 0.406250 0.874336
vt 0.421875 0.874506
vt 0.421875 0.624494
vt 0.906250 0.618206
vt 0.906250 0.868218
vt 0.921875 0.868048
vt 0.921875 0.618036
vt 0.593750 0.624324
vt 0.593750 0.874336
vt 0.609375 0.874107
vt 0.609375 0.624095
vt 0.093750 0.618206
vt 0.093750 0.868218
vt 0.109375 0.868447
vt 0.109375 0.618435
vt 0.562500 0.624664
vt 0.562500 0.874676
vt 0.578125 0.874506
vt 0.578125 0.624494
vt 0.375000 0.623866
vt 0.375000 0.873878
vt 0.390625 0.874107
vt 0.390625 0.624095
vt 0.312500 0.622673
vt 0.312500 0.872685
vt 0.328125 0.873003
vt 0.328125 0.622991
vt 0.968750 0.617657
vt 0.968750 0.867669
vt 0.984375 0.867634
vt 0.984375 0.617622
vt 0.812500 0.619857
vt 0.812500 0.869869
vt 0.828125 0.869551
vt 0.828125 0.619539
vt 0.250000 0.621265
vt 0.250000 0.871277
vt 0.265625 0.871636
vt 0.265625 0.621624
vt 0.437500 0.624664
vt 0.437500 0.874676
vt 0.453125 0.874780
vt 0.453125 0.624768
vt 0.062500 0.617866
vt 0.062500 0.867878
vt 0.078125 0.868048
vt 0.078125 0.618036
vt 0.531250 0.624873
vt 0.531250 0.874885
vt 0.546875 0.874780
vt 0.546875 0.624768
vt 0.937500 0.617866
vt 0.937500 0.867878
vt 0.953125 0.867774
vt 0.953125 0.617762
vt 0.281250 0.621983
vt 0.281250 0.871995
vt 0.296875 0.872340
vt 0.296875 0.622328
vt 0.125000 0.618664
vt 0.125000 0.868676
vt 0.140625 0.868955
vt 0.140625 0.618943
vt 0.343750 0.623309
vt 0.343750 0.873321
vt 0.359375 0.873600
vt 0.359375 0.623587
vt 0.109375 0.310274
vt 0.109375 0.435280
vt 0.000000 0.000000
vt 0.000000 0.000000
vt 0.078125 0.309611
vt 0.078125 0.434617
vt 0.000000 0.000000
vt 0.359375 0.435997
vt 0.359375 0.310991
vt 0.000000 0.000000
vt 0.656250 0.873321
vt 0.156250 0.869233
vt 0.515625 0.867634
vt 1.000000 0.867598
vt 0.328125 0.436660
vt 0.656250 0.623309
vt 0.328125 0.311654
vt 0.156250 0.619221
vt 1.000000 0.617586
vt 0.515625 0.617622
vn 0.0000 -1.0000 0.0000
vn 0.8604 0.5097 0.0000
vn -0.8319 -0.5550 0.0000
vn 0.8455 -0.5340 0.0000
vn 0.0000 1.0000 0.0000
vn -0.8477 0.5304 0.0000
vn -0.9696 0.2435 -0.0227
vn -0.9423 -0.3334 -0.0298
vn 0.9698 -0.2425 -0.0269
vn -0.8040 0.5944 -0.0182
vn -0.9040 0.4270 -0.0203
vn -0.5169 0.8559 -0.0147
vn 0.4228 0.9061 -0.0132
vn -0.2481 -0.9680 -0.0370
vn -0.4322 -0.9011 -0.0363
vn 0.5917 0.8061 -0.0143
vn -0.3407 0.9401 -0.0135
vn 0.1419 -0.9892 -0.0369
vn -0.1513 0.9884 -0.0127
vn -0.8595 -0.5102 -0.0319
vn 0.8556 0.5174 -0.0176
vn -0.7438 -0.6676 -0.0337
vn 0.3327 -0.9423 -0.0361
vn 0.6693 -0.7423 -0.0334
vn 0.2379 0.9712 -0.0126
vn -0.6733 0.7392 -0.0162
vn 0.9033 -0.4279 -0.0293
vn -0.0542 -0.9978 -0.0372
vn 0.7378 0.6748 -0.0158
vn -0.5995 -0.7996 -0.0352
vn 0.0441 0.9990 -0.0124
vn 0.8018 -0.5967 -0.0314
vn 0.9403 0.3399 -0.0198
vn 0.5108 -0.8590 -0.0349
vn 0.9984 -0.0476 0.0307
vn 0.9986 -0.0476 -0.0245
vn 0.9883 0.1490 0.0331
vn -0.9984 0.0507 -0.0251
vn -0.0197 -0.0121 -0.9997
vn -0.0009 -0.0240 -0.9997
vn 0.0182 -0.0131 -0.9997
vn 0.0219 0.0083 -0.9997
vn 0.0038 0.0295 -0.9996
vn -0.0231 0.0134 -0.9996
vn -0.0174 -0.0152 0.9997
vn 0.0030 -0.0237 0.9997
vn 0.0199 -0.0099 0.9998
vn 0.0207 0.0120 0.9997
vn 0.0017 0.0278 0.9996
vn -0.0256 0.0126 0.9996
vn -0.9892 -0.1441 -0.0275
vn -0.9983 0.0507 0.0301
vn 0.9886 0.1490 -0.0221
vn 0.5110 -0.8593 0.0202
vn 0.9399 0.3397 0.0354
vn 0.8020 -0.5969 0.0237
vn 0.0440 0.9981 0.0427
vn -0.5998 -0.7999 0.0199
vn 0.7373 0.6744 0.0393
vn -0.0543 -0.9984 0.0180
vn 0.9034 -0.4280 0.0259
vn -0.6729 0.7387 0.0389
vn 0.2377 0.9704 0.0426
vn 0.6695 -0.7425 0.0218
vn 0.3329 -0.9428 0.0190
vn -0.7440 -0.6678 0.0214
vn 0.8551 0.5171 0.0375
vn -0.8597 -0.5103 0.0232
vn -0.1512 0.9876 0.0424
vn 0.1420 -0.9897 0.0182
vn -0.3404 0.9393 0.0417
vn 0.5912 0.8055 0.0408
vn -0.4324 -0.9015 0.0188
vn -0.2482 -0.9685 0.0181
vn 0.4225 0.9054 0.0419
vn -0.5165 0.8553 0.0405
vn -0.9036 0.4269 0.0348
vn -0.8036 0.5941 0.0370
vn 0.9697 -0.2425 0.0282
vn -0.9424 -0.3335 0.0254
vn -0.9694 0.2434 0.0325
vn -0.9892 -0.1441 0.0277
usemtl Material
s off
f 7/1/1 5/2/1 11/3/1 9/4/1
f 1/5/2 6/6/2 8/7/2 3/8/2
f 9/4/3 11/3/3 2/9/3 4/10/3
f 7/1/4 1/5/4 3/8/4 5/2/4
f 12/11/5 10/12/5 8/13/5 6/6/5
f 12/11/6 4/10/6 2/9/6 10/12/6
f 51/14/7 52/15/7 111/16/7 109/17/7
f 63/18/8 64/19/8 122/20/8 119/21/8
f 39/22/9 40/23/9 105/24/9 104/25/9
f 41/26/10 42/27/10 102/28/10 101/29/10
f 45/30/11 46/31/11 106/32/11 103/33/11
f 33/34/12 34/35/12 97/36/12 92/37/12
f 14/38/13 78/39/13 79/40/13 13/41/13
f 71/42/14 72/43/14 134/44/14 133/45/14
f 75/46/15 76/47/15 136/48/15 135/49/15
f 15/50/16 16/51/16 82/52/16 83/53/16
f 29/54/17 30/55/17 93/56/17 90/57/17
f 61/58/18 62/59/18 127/60/18 124/61/18
f 27/62/19 28/63/19 91/64/19 87/65/19
f 67/66/20 68/67/20 125/68/20 123/69/20
f 21/70/21 22/71/21 88/72/21 89/73/21
f 69/74/22 70/75/22 128/76/22 126/77/22
f 59/78/23 60/79/23 121/80/23 120/81/23
f 49/82/24 50/83/24 113/84/24 114/85/24
f 17/86/25 18/87/25 81/88/25 77/89/25
f 37/90/26 38/91/26 99/92/26 96/93/26
f 43/94/27 44/95/27 107/96/27 108/97/27
f 65/98/28 66/99/28 130/100/28 131/101/28
f 19/102/29 20/103/29 85/104/29 84/105/29
f 73/106/30 74/107/30 132/108/30 129/109/30
f 23/110/31 24/111/31 86/112/31 80/113/31
f 47/114/32 48/115/32 112/116/32 110/117/32
f 25/118/33 26/119/33 95/120/33 94/121/33
f 53/122/34 54/123/34 117/124/34 118/125/34
f 39/22/35 138/126/35 100/127/35 40/23/35
f 100/127/36 138/126/36 35/128/36 36/129/36
f 35/128/37 98/130/37 137/131/37 36/129/37
f 56/132/38 115/133/38 139/134/38 55/135/38
f 6/6/39 1/5/39 58/136/39 122/20/39 64/19/39 125/68/39 68/67/39 128/76/39 70/75/39 132/108/39 74/107/39 136/48/39 76/47/39
f 12/11/40 6/6/40 76/47/40 134/44/40 72/43/40 130/100/40 66/99/40 127/60/40 62/59/40 121/80/40 60/79/40 117/124/40 54/123/40
f 4/10/41 12/11/41 54/123/41 113/84/41 50/83/41 112/116/41 48/115/41 107/96/41 44/95/41 105/24/41 40/23/41 100/127/41 36/129/41
f 9/4/42 4/10/42 36/129/42 137/131/42 32/137/42 95/120/42 26/119/42 88/72/42 22/71/42 85/104/42 20/103/42 82/52/42 16/51/42
f 7/1/43 9/4/43 16/51/43 78/138/43 14/139/43 81/88/43 18/87/43 86/112/43 24/111/43 91/64/43 28/63/43 93/56/43 30/55/43 97/36/43 34/35/43
f 1/5/44 7/1/44 34/35/44 99/92/44 38/91/44 102/28/44 42/27/44 106/32/44 46/31/44 111/16/44 52/15/44 115/133/44 56/132/44 140/140/44 58/136/44
f 8/7/45 73/106/45 129/109/45 69/74/45 126/77/45 67/66/45 123/69/45 63/18/45 119/21/45 57/141/45 116/142/45 55/135/45 3/8/45
f 10/12/46 59/78/46 120/81/46 61/58/46 124/61/46 65/98/46 131/101/46 71/42/46 133/45/46 75/46/46 135/49/46 73/106/46 8/7/46
f 2/9/47 39/22/47 104/25/47 43/94/47 108/97/47 47/114/47 110/117/47 49/82/47 114/85/47 53/122/47 118/125/47 59/78/47 10/12/47
f 11/3/48 19/102/48 84/105/48 21/70/48 89/73/48 25/118/48 94/121/48 31/143/48 98/130/48 35/128/48 138/126/48 39/22/48 2/9/48
f 5/2/49 27/62/49 87/65/49 23/110/49 80/113/49 17/86/49 77/89/49 13/144/49 79/145/49 15/50/49 83/53/49 19/102/49 11/3/49
f 3/8/50 55/135/50 139/134/50 51/14/50 109/17/50 45/30/50 103/33/50 41/26/50 101/29/50 37/90/50 96/93/50 33/34/50 92/37/50 29/54/50 90/57/50 27/62/50 5/2/50
f 116/142/51 57/141/51 58/136/51 140/140/51
f 115/133/52 52/15/52 51/14/52 139/134/52
f 98/130/53 31/143/53 32/137/53 137/131/53
f 118/125/54 117/124/54 60/79/54 59/78/54
f 94/121/55 95/120/55 32/137/55 31/143/55
f 110/117/56 112/116/56 50/83/56 49/82/56
f 80/113/57 86/112/57 18/87/57 17/86/57
f 129/109/58 132/108/58 70/75/58 69/74/58
f 84/105/59 85/104/59 22/71/59 21/70/59
f 131/101/60 130/100/60 72/43/60 71/42/60
f 108/97/61 107/96/61 48/115/61 47/114/61
f 96/93/62 99/92/62 34/35/62 33/34/62
f 77/89/63 81/88/63 14/139/63 13/144/63
f 114/85/64 113/84/64 54/123/64 53/122/64
f 120/81/65 121/80/65 62/59/65 61/58/65
f 126/77/66 128/76/66 68/67/66 67/66/66
f 89/73/67 88/72/67 26/119/67 25/118/67
f 123/69/68 125/68/68 64/19/68 63/18/68
f 87/65/69 91/64/69 24/111/69 23/110/69
f 124/61/70 127/60/70 66/99/70 65/98/70
f 90/57/71 93/56/71 28/63/71 27/62/71
f 83/53/72 82/52/72 20/103/72 19/102/72
f 135/49/73 136/48/73 74/107/73 73/106/73
f 133/45/74 134/44/74 76/47/74 75/46/74
f 79/40/75 78/39/75 16/51/75 15/50/75
f 92/37/76 97/36/76 30/55/76 29/54/76
f 103/33/77 106/32/77 42/27/77 41/26/77
f 101/29/78 102/28/78 38/91/78 37/90/78
f 104/25/79 105/24/79 44/95/79 43/94/79
f 119/21/80 122/20/80 58/136/80 57/141/80
f 109/17/81 111/16/81 46/31/81 45/30/81
f 55/135/82 116/142/82 140/140/82 56/132/82
