# Blender v2.90.1 OBJ File: ''
# www.blender.org
mtllib window.mtl
#o Cube
v -1.007265 0.161521 -3.679437
v -1.007265 4.130590 -3.679437
v -1.007265 0.161521 -3.479437
v -1.007265 4.130590 -3.479437
v 2.961804 0.161521 -3.679437
v 2.961804 4.130590 -3.679437
v 2.961804 0.161521 -3.479437
v 2.961804 4.130590 -3.479437
v -1.007265 2.146056 -3.679437
v 2.961804 2.146056 -3.479437
v -1.007265 2.146056 -3.479437
v 2.961804 2.146056 -3.679437
v 0.931033 4.130171 -3.676164
v 0.931033 0.161102 -3.476164
v 0.931033 4.130171 -3.476164
v 0.931033 0.161102 -3.676164
v 0.931033 2.145637 -3.676164
v 0.931033 2.145637 -3.476164
v -1.007265 4.272280 -3.679437
v -1.007265 4.272280 -3.479437
v 2.961804 4.272280 -3.679437
v 2.961804 4.272280 -3.479437
v 0.931033 4.271861 -3.676164
v 0.931033 4.271861 -3.476164
v -1.007265 0.004270 -3.679437
v -1.007265 0.004270 -3.479437
v 2.961804 0.004270 -3.679437
v 2.961804 0.004270 -3.479437
v 0.931033 0.003851 -3.476164
v 0.931033 0.003851 -3.676164
v -1.179483 0.161521 -3.679437
v -1.179483 4.130590 -3.679437
v -1.179483 0.161521 -3.479437
v -1.179483 4.130590 -3.479437
v -1.179483 2.146056 -3.679437
v -1.179483 2.146056 -3.479437
v -1.179483 4.272280 -3.679437
v -1.179483 4.272280 -3.479437
v -1.179483 0.004270 -3.679437
v -1.179483 0.004270 -3.479437
v 3.124218 0.161521 -3.679437
v 3.124218 4.130590 -3.679437
v 3.124218 0.161521 -3.479437
v 3.124218 4.130590 -3.479437
v 3.124218 2.146056 -3.479437
v 3.124218 2.146056 -3.679437
v 3.124218 4.272280 -3.679437
v 3.124218 4.272280 -3.479437
v 3.124218 0.004270 -3.679437
v 3.124218 0.004270 -3.479437
v 1.075265 4.130590 -3.679437
v 1.075265 0.161521 -3.479437
v 1.075265 2.146056 -3.479437
v 1.075265 4.130590 -3.479437
v 1.075265 0.161521 -3.679437
v 1.075265 2.146056 -3.679437
v 1.075265 4.272280 -3.679437
v 1.075265 4.272280 -3.479437
v 1.075265 0.004270 -3.479437
v 1.075265 0.004270 -3.679437
v 2.959215 1.940826 -3.485248
v -1.009855 1.940826 -3.685248
v -1.009855 1.940826 -3.485248
v 2.959215 1.940826 -3.685248
v 0.928443 1.940407 -3.681976
v 0.928443 1.940407 -3.481976
v -1.182073 1.940826 -3.685248
v -1.182073 1.940826 -3.485248
v 3.121628 1.940826 -3.485248
v 3.121628 1.940826 -3.685248
v 1.072675 1.940826 -3.685248
v 1.072675 1.940826 -3.485248
vt 0.512924 0.761479
vt 0.500000 0.750000
vt 0.500000 0.750000
vt 0.512927 0.750000
vt 0.625000 0.250000
vt 0.625000 0.250000
vt 0.625000 0.250000
vt 0.625000 0.250000
vt 0.512927 1.000000
vt 0.625000 1.000000
vt 0.625000 1.000000
vt 0.512927 1.000000
vt 0.375000 0.750000
vt 0.375000 0.750000
vt 0.375000 0.750000
vt 0.375000 0.750000
vt 0.375000 0.500000
vt 0.500000 0.500000
vt 0.500000 0.500000
vt 0.375000 0.500000
vt 0.375000 1.000000
vt 0.500000 1.000000
vt 0.500000 1.000000
vt 0.375000 1.000000
vt 0.375000 0.368828
vt 0.500000 0.368828
vt 0.500000 0.375000
vt 0.375000 0.375000
vt 0.512588 0.448050
vt 0.625000 0.368828
vt 0.625000 0.375000
vt 0.512924 0.363521
vt 0.375000 0.881172
vt 0.375000 1.000000
vt 0.375000 0.881172
vt 0.375000 0.250000
vt 0.375000 0.250000
vt 0.375000 0.250000
vt 0.375000 0.250000
vt 0.250000 0.500000
vt 0.375000 0.500000
vt 0.250000 0.750000
vt 0.243828 0.500000
vt 0.243828 0.750000
vt 0.625000 0.750000
vt 0.625000 0.750000
vt 0.625000 0.750000
vt 0.625000 0.750000
vt 0.375000 0.375000
vt 0.375000 0.368828
vt 0.375000 0.875000
vt 0.375000 0.875000
vt 0.756172 0.500000
vt 0.875000 0.500000
vt 0.875000 0.750000
vt 0.756172 0.750000
vt 0.625000 0.500000
vt 0.750000 0.500000
vt 0.750000 0.750000
vt 0.625000 0.368828
vt 0.625000 0.875000
vt 0.625000 0.875000
vt 0.625000 0.500000
vt 0.625000 0.375000
vt 0.625000 0.881172
vt 0.625000 0.881172
vt 0.625000 0.500000
vt 0.625000 0.500000
vt 0.512927 0.813074
vt 0.375000 0.500000
vt 0.512924 0.488521
vt 0.512927 -0.313074
vt 0.625000 0.000000
vt 0.512927 -0.063074
vt 0.375000 0.000000
vt 0.375000 0.000000
vt 0.500000 0.000000
vt 0.500000 0.250000
vt 0.625000 0.000000
vt 0.625000 1.000000
vt 0.625000 1.000000
vt 0.512927 0.250000
vt 0.500000 0.250000
vt 0.125000 0.500000
vt 0.125000 0.750000
vt 0.125000 0.750000
vt 0.125000 0.500000
vt 0.375000 1.000000
vt 0.875000 0.500000
vt 0.875000 0.750000
vt 0.500000 0.875000
vt 0.500000 0.881172
vt 0.512924 0.886479
vt 0.512588 0.801951
vn 0.0000 -0.0283 0.9996
vn 0.0000 0.0000 -1.0000
vn 0.0000 0.0033 1.0000
vn 0.0000 0.0000 1.0000
vn -0.0227 0.0000 -0.9997
vn -0.0227 -0.0033 -0.9997
vn 0.0002 1.0000 0.0000
vn -0.0029 1.0000 0.0000
vn 0.0017 0.0000 -1.0000
vn -0.0017 0.0000 1.0000
vn 0.0000 -1.0000 0.0000
vn -0.0002 -1.0000 0.0000
vn 0.0227 0.0000 0.9997
vn -1.0000 0.0000 0.0000
vn -1.0000 -0.0015 0.0000
vn 0.0000 1.0000 0.0000
vn 0.0000 -0.0033 -1.0000
vn 1.0000 0.0015 0.0000
vn 1.0000 0.0000 0.0000
vn 0.0000 0.0283 -0.9996
vn 0.0029 -1.0000 0.0000
vn 0.0227 0.0033 0.9997
vn 0.0228 -0.0286 0.9993
vn 0.9999 -0.0126 0.0000
vn -0.9999 0.0126 0.0000
vn -0.0017 -0.0283 0.9996
vn -0.0228 0.0286 -0.9993
vn 0.0017 0.0283 -0.9996
usemtl Material
s off
f 63/1/1 11/2/1 36/3/1 68/4/1
f 27/5/2 5/6/2 41/7/2 49/8/2
f 61/9/3 7/10/3 43/11/3 69/12/3
f 4/13/4 20/14/4 38/15/4 34/16/4
f 2/17/2 9/18/2 35/19/2 32/20/2
f 8/21/4 10/22/4 45/23/4 44/24/4
f 51/25/5 56/26/5 17/27/5 13/28/5
f 71/29/6 55/30/6 16/31/6 65/32/6
f 54/33/4 8/21/4 22/34/4 58/35/4
f 6/36/2 21/37/2 47/38/2 42/39/2
f 23/40/7 19/41/7 20/14/7 24/42/7
f 57/43/8 23/40/8 24/42/8 58/44/8
f 26/45/4 3/46/4 33/47/4 40/48/4
f 13/28/9 2/17/9 19/41/9 23/49/9
f 51/25/5 13/28/5 23/49/5 57/50/5
f 4/13/10 15/51/10 24/52/10 20/14/10
f 60/53/11 27/54/11 28/55/11 59/56/11
f 25/57/12 30/58/12 29/59/12 26/45/12
f 55/30/2 5/6/2 27/5/2 60/60/2
f 14/61/10 3/46/10 26/45/10 29/62/10
f 1/63/9 16/31/9 30/64/9 25/57/9
f 52/65/13 14/61/13 29/62/13 59/66/13
f 33/47/14 31/67/14 39/68/14 40/48/14
f 67/69/15 31/67/15 33/47/15 68/4/15
f 32/20/14 35/19/14 36/3/14 34/16/14
f 32/20/14 34/16/14 38/15/14 37/70/14
f 11/2/4 4/13/4 34/16/4 36/3/4
f 25/57/11 26/45/11 40/48/11 39/68/11
f 1/63/2 25/57/2 39/68/2 31/67/2
f 20/14/16 19/41/16 37/70/16 38/15/16
f 19/41/2 2/17/2 32/20/2 37/70/2
f 62/71/17 1/63/17 31/67/17 67/69/17
f 69/72/18 43/73/18 41/7/18 70/74/18
f 44/75/19 42/39/19 47/38/19 48/76/19
f 44/75/19 45/77/19 46/78/19 42/39/19
f 41/7/19 43/73/19 50/79/19 49/8/19
f 7/10/4 28/80/4 50/81/4 43/11/4
f 64/82/20 12/83/20 46/78/20 70/74/20
f 21/84/16 22/85/16 48/86/16 47/87/16
f 12/83/2 6/36/2 42/39/2 46/78/2
f 22/34/4 8/21/4 44/24/4 48/88/4
f 28/55/11 27/54/11 49/89/11 50/90/11
f 7/10/4 52/65/4 59/66/4 28/80/4
f 16/31/5 55/30/5 60/60/5 30/64/5
f 30/58/21 60/53/21 59/56/21 29/59/21
f 6/36/2 51/25/2 57/50/2 21/37/2
f 21/84/16 57/43/16 58/44/16 22/85/16
f 15/51/13 54/33/13 58/35/13 24/52/13
f 15/51/13 18/91/13 53/92/13 54/33/13
f 66/93/22 14/61/22 52/65/22 72/94/22
f 18/91/23 66/93/23 72/94/23 53/92/23
f 12/83/20 64/82/20 71/29/20 56/26/20
f 5/6/17 64/82/17 70/74/17 41/7/17
f 45/77/24 69/72/24 70/74/24 46/78/24
f 9/18/20 62/71/20 67/69/20 35/19/20
f 35/19/25 67/69/25 68/4/25 36/3/25
f 11/2/26 63/1/26 66/93/26 18/91/26
f 56/26/27 71/29/27 65/32/27 17/27/27
f 17/27/28 65/32/28 62/71/28 9/18/28
f 10/22/1 61/9/1 69/12/1 45/23/1
f 53/92/1 72/94/1 61/9/1 10/22/1
f 3/46/3 63/1/3 68/4/3 33/47/3
#o Glass_Cube.001
v -1.010901 0.125187 -3.507839
v -1.010901 4.157269 -3.507839
v -1.010901 0.125187 -3.641463
v -1.010901 4.157269 -3.641463
v 2.969001 0.125187 -3.507839
v 2.969001 4.157269 -3.507839
v 2.969001 0.125187 -3.641463
v 2.969001 4.157269 -3.641463
vt 0.375000 0.000000
vt 0.625000 0.000000
vt 0.625000 0.250000
vt 0.375000 0.250000
vt 0.625000 0.500000
vt 0.375000 0.500000
vt 0.625000 0.750000
vt 0.375000 0.750000
vt 0.625000 1.000000
vt 0.375000 1.000000
vt 0.125000 0.500000
vt 0.125000 0.750000
vt 0.875000 0.500000
vt 0.875000 0.750000
vn -1.0000 0.0000 0.0000
vn 0.0000 0.0000 -1.0000
vn 1.0000 0.0000 0.0000
vn 0.0000 0.0000 1.0000
vn 0.0000 -1.0000 0.0000
vn 0.0000 1.0000 0.0000
usemtl Material.001
s off
f 73/95/29 74/96/29 76/97/29 75/98/29
f 75/98/30 76/97/30 80/99/30 79/100/30
f 79/100/31 80/99/31 78/101/31 77/102/31
f 77/102/32 78/101/32 74/103/32 73/104/32
f 75/105/33 79/100/33 77/102/33 73/106/33
f 80/99/34 76/107/34 74/108/34 78/101/34
